<svg width="16" height="16" viewBox="0 0 16 16" fill="none" xmlns="http://www.w3.org/2000/svg">
<path d="M14.5813 0.60376H1.42001C0.969207 0.60376 0.60376 0.969207 0.60376 1.42001V14.5813C0.60376 15.0321 0.969207 15.3975 1.42001 15.3975H14.5813C15.0321 15.3975 15.3975 15.0321 15.3975 14.5813V1.42001C15.3975 0.969207 15.0321 0.60376 14.5813 0.60376Z" fill="#3D5A98"/>
<path d="M10.8099 15.3962V9.66749H12.7324L13.0199 7.43499H10.8099V6.00999C10.8099 5.36374 10.9899 4.92249 11.9161 4.92249H13.0986V2.92249C12.526 2.86292 11.9506 2.83454 11.3749 2.83749C9.67239 2.83749 8.49989 3.87499 8.49989 5.78874V7.43499H6.57739V9.66749H8.49989V15.3962H10.8099Z" fill="white"/>
</svg>
