<svg width="16" height="16" viewBox="0 0 16 16" fill="none" xmlns="http://www.w3.org/2000/svg">
<path d="M12.25 0H3.75C1.67893 0 0 1.67893 0 3.75V12.25C0 14.3211 1.67893 16 3.75 16H12.25C14.3211 16 16 14.3211 16 12.25V3.75C16 1.67893 14.3211 0 12.25 0Z" fill="white"/>
<path d="M12.25 0H3.75C1.67893 0 0 1.67893 0 3.75V12.25C0 14.3211 1.67893 16 3.75 16H12.25C14.3211 16 16 14.3211 16 12.25V3.75C16 1.67893 14.3211 0 12.25 0Z" fill="#1D9BF0"/>
<path d="M12.4733 5.71318C12.4801 5.81237 12.4801 5.91156 12.4801 6.01168C12.4801 9.0615 10.1584 12.5789 5.91294 12.5789V12.577C4.65876 12.5788 3.43056 12.2196 2.375 11.5423C2.55746 11.5642 2.74058 11.5753 2.92438 11.5756C3.96388 11.5765 4.97348 11.2278 5.79094 10.5857C5.30931 10.5766 4.84257 10.4172 4.45596 10.1298C4.06935 9.84242 3.78219 9.44143 3.63462 8.98287C3.98042 9.04957 4.33692 9.03597 4.67662 8.94312C3.59987 8.72556 2.82519 7.7795 2.82519 6.68075V6.6515C3.14618 6.8303 3.50542 6.92937 3.87269 6.94037C2.85856 6.26256 2.54594 4.91337 3.15831 3.8585C3.73773 4.5716 4.4607 5.15482 5.28024 5.57026C6.09979 5.9857 6.99757 6.22407 7.91525 6.26987C7.82375 5.87602 7.83727 5.46505 7.95444 5.07806C8.07161 4.69107 8.28834 4.34163 8.58294 4.06468C9.51256 3.19081 10.9746 3.23562 11.8485 4.16475C12.3654 4.0627 12.8611 3.87321 13.3142 3.60443C13.1419 4.13885 12.7813 4.59248 12.2996 4.88093C12.7571 4.82698 13.2039 4.7045 13.625 4.51762C13.3153 4.98152 12.9252 5.38634 12.4733 5.71318Z" fill="white"/>
</svg>
